<?xml version="1.0" encoding="UTF-8" standalone="no"?>
<!-- Created with Inkscape (http://www.inkscape.org/) -->

<svg
   width="272.65045mm"
   height="129.10834mm"
   viewBox="0 0 272.65045 129.10833"
   version="1.1"
   id="svg5"
   inkscape:version="1.1.2 (b8e25be8, 2022-02-05)"
   sodipodi:docname="urpean_logo_full.svg"
   xmlns:inkscape="http://www.inkscape.org/namespaces/inkscape"
   xmlns:sodipodi="http://sodipodi.sourceforge.net/DTD/sodipodi-0.dtd"
   xmlns="http://www.w3.org/2000/svg"
   xmlns:svg="http://www.w3.org/2000/svg">
  <sodipodi:namedview
     id="namedview7"
     pagecolor="#ffffff"
     bordercolor="#666666"
     borderopacity="1.0"
     inkscape:pageshadow="2"
     inkscape:pageopacity="0.0"
     inkscape:pagecheckerboard="0"
     inkscape:document-units="mm"
     showgrid="false"
     fit-margin-top="1"
     fit-margin-left="1"
     fit-margin-right="1"
     fit-margin-bottom="1"
     inkscape:zoom="0.5"
     inkscape:cx="458"
     inkscape:cy="421"
     inkscape:window-width="1312"
     inkscape:window-height="847"
     inkscape:window-x="0"
     inkscape:window-y="25"
     inkscape:window-maximized="0"
     inkscape:current-layer="layer1" />
  <defs
     id="defs2" />
  <g
     inkscape:label="Layer 1"
     inkscape:groupmode="layer"
     id="layer1"
     transform="translate(-21.899935,-32.161386)">
    <path
       style="fill:#000000;stroke-width:0.264583"
       d="m 236.45421,157.9507 c -2.1436,-2.95001 -3.22821,-4.58702 -13.08795,-19.7537 -5.98017,-9.19897 -6.30725,-9.6481 -7.69625,-10.56813 -1.52084,-1.00737 -2.65365,-1.24146 -9.03697,-1.86753 -8.08834,-0.7933 -10.14629,-0.68531 -11.34258,0.59515 -1.16596,1.248 -3.24061,11.10664 -3.24061,15.39919 0,2.16896 -0.33696,4.11423 -0.71266,4.11423 -0.0725,0 -0.47146,-0.20068 -0.88669,-0.44596 -0.85163,-0.50307 -2.08186,-2.9982 -2.75048,-5.57851 -0.59292,-2.28815 -0.54788,-6.69685 0.0902,-8.83047 0.27658,-0.92483 0.57772,-2.11778 0.66918,-2.65098 0.18662,-1.08794 0.22582,-1.06768 -2.75957,-1.4263 -1.54892,-0.18606 -2.38125,-0.69732 -2.38125,-1.46266 0,-0.37526 0.3044,-0.5027 1.52135,-0.63694 2.48099,-0.27367 2.89483,-0.39773 4.00189,-1.19968 1.73786,-1.2589 3.15677,-4.16478 4.42972,-9.07187 0.53893,-2.07754 0.71372,-3.57104 0.87508,-7.47717 0.1109,-2.6846 0.26565,-4.94509 0.34389,-5.02333 0.0782,-0.0782 0.88246,0.0718 1.78716,0.33342 1.51862,0.43914 1.69224,0.56859 2.2614,1.68612 0.33907,0.66575 1.42871,2.15448 2.42143,3.3083 0.99273,1.15381 2.2294,2.63316 2.74816,3.28745 0.51876,0.6543 1.88539,2.38025 3.03696,3.83546 2.96302,3.74428 4.16016,4.97182 6.02613,6.17917 2.84384,1.84008 4.52087,2.27899 8.64683,2.26304 2.08552,-0.008 4.72792,-0.20539 6.35,-0.4742 9.3456,-1.54876 17.99166,-2.21887 17.99166,-1.39444 0,0.74649 -0.93452,1.16319 -2.92731,1.30527 -2.47372,0.17638 -3.49762,0.59314 -5.563,2.26431 -1.90821,1.54401 -3.35341,2.06846 -8.84944,3.21141 -2.15785,0.44875 -4.08026,0.94611 -4.27201,1.10526 -0.53833,0.44676 -0.42387,1.00731 0.58609,2.87039 0.51277,0.94588 1.50839,2.86427 2.2125,4.26307 1.32025,2.62285 1.60394,3.03178 6.1285,8.8338 4.23235,5.42733 4.01644,4.99705 4.08326,8.13733 0.0378,1.77503 0.21231,3.12153 0.50569,3.90121 0.59092,1.57044 0.9392,3.15167 0.72355,3.28495 -0.0951,0.0588 -0.96533,-0.98373 -1.93388,-2.31666 z m -6.30436,-33.91246 c 1.96453,-0.21598 4.01172,-0.39283 4.54931,-0.39301 1.01284,-2.6e-4 2.66032,-1.07959 2.26018,-1.48065 -0.18969,-0.19012 -2.65438,0.17073 -10.51366,1.53927 -2.36389,0.41162 -3.11861,0.62665 -2.64583,0.75383 0.71029,0.19107 0.92708,0.17675 6.35,-0.41944 z m -24.63389,-1.97074 c 3.26762,-0.23742 4.32033,-0.5948 3.87493,-1.31548 -0.10125,-0.16381 -0.99516,-0.83219 -1.98649,-1.48528 -2.3772,-1.5661 -5.08571,-4.45529 -7.32198,-7.81038 -0.99818,-1.49757 -1.9657,-2.77166 -2.15006,-2.83131 -0.95313,-0.30841 -2.17393,5.33492 -2.17678,10.06252 -0.002,3.65577 -0.0213,3.63631 3.56781,3.62632 1.60211,-0.004 4.38876,-0.11533 6.19257,-0.24639 z m -101.38368,30.15241 c -0.11043,-3.22951 -0.35598,-5.46731 -0.94358,-8.59896 -0.5631,-3.00114 -1.07808,-7.54484 -1.76924,-15.61041 -0.53621,-6.2574 -1.11182,-11.67474 -1.27913,-12.03854 -0.167307,-0.36381 -0.851687,-0.95912 -1.520847,-1.32292 -0.66917,-0.3638 -1.411862,-0.82487 -1.650437,-1.02458 -0.486696,-0.40743 -0.576162,-1.23744 -0.161036,-1.49401 0.26902,-0.16626 6.62397,-0.91997 12.29497,-1.4582 1.60073,-0.15193 4.06021,-0.50993 5.46552,-0.79556 4.76638,-0.96876 12.30902,-0.47512 14.90435,0.97543 1.98072,1.10705 4.45652,4.31383 4.93676,6.39434 0.39119,1.69472 -0.0401,4.09872 -0.90009,5.01686 -0.74545,0.79589 -7.55939,5.65303 -10.39182,7.40754 -4.144,2.56695 -5.94742,3.34735 -10.5576,4.56859 -1.59108,0.42148 -3.06733,0.94078 -3.28055,1.15401 -0.33664,0.33664 -0.34357,0.97342 -0.0526,4.83673 0.23318,3.09623 0.26528,5.69607 0.10555,8.5501 l -0.22951,4.10104 -0.85874,0.0828 c -0.8875,0.0856 -1.96472,0.97682 -3.27177,2.70684 l -0.69091,0.91451 z M 114.2199,126.3464 c 4.76226,-1.88293 5.44085,-2.23426 7.85309,-4.06587 3.48979,-2.64978 3.64401,-2.84036 3.77457,-4.6648 0.0894,-1.2499 0.01,-1.63624 -0.46105,-2.23267 -0.76207,-0.96561 -1.6964,-1.16181 -7.2697,-1.52655 -5.05393,-0.33074 -10.54064,2.4e-4 -11.4809,0.69258 -0.36702,0.27024 -0.43424,0.7511 -0.39043,2.79291 0.0703,3.27546 0.62691,9.72289 0.90392,10.4701 0.36214,0.97688 1.47759,0.74565 7.0705,-1.4657 z m 140.06415,23.33964 c -0.29572,-0.57966 -0.74403,-1.76376 -0.99624,-2.63135 -0.51801,-1.78189 -0.50133,-2.04788 0.96197,-15.33999 1.44118,-13.09111 2.84861,-19.57158 4.37803,-20.15847 0.56333,-0.21617 1.08468,0.0759 7.24079,4.05604 9.85776,6.37342 14.81295,9.38664 15.51845,9.43667 1.20279,0.0853 1.47251,-0.78296 1.2992,-4.18215 -0.0816,-1.60073 -0.32914,-4.02123 -0.55005,-5.37888 -0.43693,-2.68528 -0.26187,-4.10939 0.59847,-4.86847 0.25527,-0.22523 1.35649,-0.85564 2.44716,-1.40089 1.09066,-0.54526 2.38223,-1.29587 2.87015,-1.66802 1.0051,-0.76664 3.37182,-1.08077 4.59144,-0.60941 1.01026,0.39044 1.17817,1.59893 0.49557,3.56656 -0.9089,2.62 -1.33062,5.25016 -1.73752,10.8371 -0.43008,5.90476 -0.71043,7.19456 -1.95802,9.00786 -0.93075,1.35279 -3.02655,3.08186 -3.73552,3.08186 -1.54391,0 -5.47381,-2.58529 -9.38697,-6.17522 -2.3319,-2.13929 -12.81848,-10.10451 -13.65085,-10.3687 -1.01543,-0.32228 -1.45618,0.47759 -1.93967,3.52016 -0.24797,1.56051 -0.71056,3.6112 -1.02798,4.55709 -0.65464,1.95083 -0.75282,5.18726 -0.34156,11.25897 0.19066,2.81488 0.15638,3.81821 -0.18532,5.42396 -0.23059,1.08361 -0.49995,2.50598 -0.59857,3.16082 -0.24098,1.60003 -0.69664,2.41991 -1.82191,3.27819 -0.51843,0.39543 -1.16553,1.15349 -1.43799,1.68458 l -0.49539,0.96561 z m -115.15086,-0.4287 c 0,-0.65253 0.24149,-3.55688 0.53665,-6.45411 1.30962,-12.85501 2.37376,-24.30004 2.37376,-25.53013 0,-0.92773 -0.0667,-1.00744 -1.1222,-1.34214 -1.38548,-0.43932 -1.53606,-1.00105 -0.598,-2.2309 1.07564,-1.41024 2.49962,-2.20797 5.20682,-2.91692 5.06401,-1.32614 6.53644,-1.48158 13.97588,-1.47538 6.44975,0.005 7.12931,0.05 8.4825,0.55709 2.23727,0.83841 2.41552,1.02583 2.08954,2.19714 -0.23166,0.83239 -0.42973,1.0267 -1.27995,1.25564 -2.2571,0.60778 -4.06646,0.8486 -7.96917,1.06067 -2.25557,0.12256 -4.93448,0.41335 -5.95313,0.64618 -1.01864,0.23284 -2.73279,0.53233 -3.80922,0.66554 -2.86827,0.35496 -3.04787,0.60177 -3.15762,4.3394 -0.0669,2.2786 -0.002,3.0565 0.27202,3.28432 0.24661,0.20467 3.18558,0.32652 9.34809,0.38757 l 8.9884,0.0891 3.43958,0.87021 c 1.89177,0.47861 4.18096,1.04184 5.08707,1.2516 5.29303,1.22534 7.285,3.10744 5.58126,5.2734 l -0.57647,0.73286 -3.45843,-0.15455 c -6.14059,-0.27441 -21.42711,-1.72431 -26.03137,-2.46902 -2.65931,-0.43013 -2.74236,-0.42828 -3.24307,0.0724 -0.6574,0.6574 -1.29604,3.65416 -1.28966,6.05158 0.008,2.88743 0.62063,6.96585 1.1223,7.46752 0.64474,0.64474 15.72889,0.62494 20.69171,-0.0272 1.90917,-0.25086 3.91048,-0.37385 4.49791,-0.27642 2.04955,0.33992 3.97671,1.69846 3.79055,2.67212 -0.0754,0.39429 -0.67328,0.58889 -3.26434,1.06246 -8.64062,1.57927 -10.13881,1.74176 -17.72412,1.92244 l -7.40834,0.17645 -1.87344,0.8306 c -1.44779,0.64189 -2.42464,0.87221 -4.29948,1.01374 l -2.42603,0.18314 z m -66.032483,-1.81912 c -0.446979,-0.12983 -0.945203,-0.50605 -1.107168,-0.83604 -0.264046,-0.53797 -1.410247,-6.11224 -3.741277,-18.19477 -0.435157,-2.25557 -1.163373,-6.60135 -1.618257,-9.65729 -0.454885,-3.05594 -1.188636,-7.10406 -1.630556,-8.99583 -0.631851,-2.70481 -0.772769,-3.80697 -0.659657,-5.15938 0.255625,-3.05631 1.652016,-5.820826 2.940177,-5.820826 0.734613,0 0.940885,0.43601 0.940885,1.988786 0,0.63347 0.116115,1.45717 0.258035,1.83044 0.346392,0.91109 1.170969,0.893 6.193308,-0.13582 2.936663,-0.60158 4.394221,-0.77827 5.575411,-0.67586 3.920069,0.33987 13.150455,0.66008 14.894599,0.51672 1.059635,-0.0871 1.917787,-0.0525 1.917239,0.0773 -0.0024,0.5886 -1.067408,1.89149 -1.753655,2.1455 -0.417394,0.1545 -2.902021,0.41717 -5.521396,0.58372 -8.86057,0.56337 -16.507306,1.57944 -18.166434,2.41387 -2.849875,1.43331 -2.873097,1.57432 -1.296442,7.8722 3.656814,14.60703 5.408562,23.73443 5.401174,28.1426 -0.0065,3.89875 -0.437954,4.54025 -2.625986,3.90472 z m -35.567518,-2.9269 c -2.999129,-0.47438 -7.099605,-3.08422 -9.40459,-5.98576 -2.700375,-3.39926 -2.904292,-3.93714 -4.111428,-10.84485 -1.36785,-7.82737 -1.434806,-10.20136 -0.445898,-15.80976 0.384888,-2.18281 0.951394,-6.70718 1.258902,-10.05416 0.544545,-5.926936 0.764357,-7.582822 1.843918,-13.890624 0.286413,-1.67349 0.643069,-3.757084 0.792568,-4.630209 1.048785,-6.125231 1.473478,-8.009329 2.385583,-10.583333 0.567223,-1.60073 1.329193,-4.279636 1.693269,-5.953125 0.364075,-1.67349 1.077947,-4.796698 1.586383,-6.940461 1.108028,-4.671881 2.55585,-13.192042 3.474013,-20.443915 0.68872,-5.439673 0.832441,-6.220611 1.143547,-6.213692 0.09933,0.0022 0.716389,0.163423 1.371233,0.358253 1.063583,0.316439 1.199737,0.446614 1.276024,1.219985 0.108179,1.096689 -0.567052,7.082284 -1.418346,12.572954 -0.606359,3.91089 -1.663593,8.736704 -2.985177,13.626042 -2.876578,10.642196 -5.004374,19.668697 -5.611361,23.804426 -0.309695,2.110118 -2.085296,22.609329 -2.293243,26.475339 -0.212376,3.94838 0.511439,11.30501 1.769311,17.98273 0.484566,2.57244 0.77169,3.08452 2.821017,5.03118 2.373513,2.2546 3.349051,2.72712 5.648025,2.73567 2.19237,0.008 4.333922,-0.67361 5.980288,-1.90383 1.154259,-0.8625 1.53395,-1.44095 3.47707,-5.29728 2.420586,-4.80391 2.918738,-6.21052 3.931516,-11.10122 1.08195,-5.22472 0.995394,-9.11011 -0.578692,-25.977014 -0.379367,-4.065059 -0.768156,-6.39032 -1.902277,-11.377084 -0.370386,-1.628592 -0.447045,-3.293525 -0.427565,-9.286174 0.02339,-7.194449 0.03307,-7.318476 0.658676,-8.435978 l 0.634942,-1.134176 0.182996,1.027644 c 0.100648,0.565203 0.552881,4.897174 1.004964,9.626601 0.883841,9.246253 1.064374,10.61326 2.655602,20.108334 0.573095,3.419741 1.222875,8.479887 1.443955,11.244787 0.221078,2.7649 0.529442,5.57909 0.68525,6.25377 0.231677,1.00321 0.137036,2.42523 -0.519459,7.80521 -0.441513,3.61819 -1.060254,8.78118 -1.374984,11.47331 -0.344112,2.94348 -0.785524,5.46958 -1.10726,6.33662 -0.709491,1.91199 -2.381099,3.63691 -4.607933,4.7549 -0.991493,0.49778 -2.464365,1.28425 -3.273049,1.74773 -2.671401,1.53102 -5.149896,2.07384 -7.65779,1.67716 z"
       id="path836" />
  </g>
</svg>
