<?xml version="1.0" encoding="UTF-8" standalone="no"?>
<!-- Created with Inkscape (http://www.inkscape.org/) -->

<svg
   width="35.288181mm"
   height="113.4751mm"
   viewBox="0 0 35.288181 113.47509"
   version="1.1"
   id="svg5"
   inkscape:version="1.1.2 (b8e25be8, 2022-02-05)"
   sodipodi:docname="urpean_logo.svg"
   xmlns:inkscape="http://www.inkscape.org/namespaces/inkscape"
   xmlns:sodipodi="http://sodipodi.sourceforge.net/DTD/sodipodi-0.dtd"
   xmlns="http://www.w3.org/2000/svg"
   xmlns:svg="http://www.w3.org/2000/svg">
  <sodipodi:namedview
     id="namedview7"
     pagecolor="#ffffff"
     bordercolor="#666666"
     borderopacity="1.0"
     inkscape:pageshadow="2"
     inkscape:pageopacity="0.0"
     inkscape:pagecheckerboard="0"
     inkscape:document-units="mm"
     showgrid="false"
     fit-margin-top="1"
     fit-margin-left="1"
     fit-margin-right="1"
     fit-margin-bottom="1"
     inkscape:zoom="0.5"
     inkscape:cx="38"
     inkscape:cy="235"
     inkscape:window-width="1312"
     inkscape:window-height="847"
     inkscape:window-x="0"
     inkscape:window-y="25"
     inkscape:window-maximized="0"
     inkscape:current-layer="layer1" />
  <defs
     id="defs2" />
  <g
     inkscape:label="Layer 1"
     inkscape:groupmode="layer"
     id="layer1"
     transform="translate(-68.466601,-35.865553)">
    <path
       style="fill:#ffffff;stroke-width:0.264583;fill-opacity:1"
       d="m 84.099855,148.21549 c -2.999129,-0.47438 -7.099605,-3.08422 -9.40459,-5.98576 -2.700375,-3.39926 -2.904292,-3.93714 -4.111428,-10.84485 -1.36785,-7.82737 -1.434806,-10.20136 -0.445898,-15.80976 0.384888,-2.18281 0.951394,-6.70718 1.258902,-10.05416 0.544545,-5.926939 0.764357,-7.582825 1.843918,-13.890627 0.286413,-1.67349 0.643069,-3.757084 0.792568,-4.630209 1.048785,-6.125231 1.473478,-8.009329 2.385583,-10.583333 0.567223,-1.60073 1.329193,-4.279636 1.693269,-5.953125 0.364075,-1.67349 1.077947,-4.796698 1.586383,-6.940461 1.108028,-4.671881 2.55585,-13.192042 3.474013,-20.443915 0.68872,-5.439673 0.832441,-6.220611 1.143547,-6.213692 0.09933,0.0022 0.716389,0.163423 1.371233,0.358253 1.063583,0.316439 1.199737,0.446614 1.276024,1.219985 0.108179,1.096689 -0.567052,7.082284 -1.418346,12.572954 -0.606359,3.91089 -1.663593,8.736704 -2.985177,13.626042 -2.876578,10.642196 -5.004374,19.668697 -5.611361,23.804426 -0.309695,2.110118 -2.085296,22.609332 -2.293243,26.475342 -0.212376,3.94838 0.511439,11.30501 1.769311,17.98273 0.484566,2.57244 0.77169,3.08452 2.821017,5.03118 2.373513,2.2546 3.349051,2.72712 5.648025,2.73567 2.19237,0.008 4.333922,-0.67361 5.980288,-1.90383 1.154259,-0.8625 1.53395,-1.44095 3.47707,-5.29728 2.420586,-4.80391 2.918738,-6.21052 3.931516,-11.10122 1.08195,-5.22472 0.995394,-9.11011 -0.578692,-25.977017 -0.379367,-4.065059 -0.768156,-6.39032 -1.902277,-11.377084 -0.370386,-1.628592 -0.447045,-3.293525 -0.427565,-9.286174 0.02339,-7.194449 0.03307,-7.318476 0.658676,-8.435978 l 0.634942,-1.134176 0.182996,1.027644 c 0.100648,0.565203 0.552881,4.897174 1.004964,9.626601 0.883841,9.246253 1.064374,10.61326 2.655607,20.108334 0.57309,3.41974 1.22287,8.47989 1.44395,11.24479 0.22108,2.7649 0.52944,5.57909 0.68525,6.25377 0.23168,1.00321 0.13704,2.42523 -0.51946,7.80521 -0.44151,3.61819 -1.06025,8.78118 -1.37498,11.47331 -0.34411,2.94348 -0.785527,5.46958 -1.107263,6.33662 -0.709491,1.91199 -2.381099,3.63691 -4.607933,4.7549 -0.991493,0.49778 -2.464365,1.28425 -3.273049,1.74773 -2.671401,1.53102 -5.149896,2.07384 -7.65779,1.67716 z"
       id="path836"
       sodipodi:nodetypes="sssssssssssssssssssscssssssscssssssssscs" />
  </g>
</svg>
