<?xml version="1.0" encoding="UTF-8"?><svg id="a" xmlns="http://www.w3.org/2000/svg" viewBox="0 0 20 11.54"><defs><style>.b{fill:none;stroke:#000;stroke-miterlimit:10;stroke-width:1.04px;}</style></defs><path class="b" d="M0,.52C2.43,.52,2.43,2.59,4.87,2.59S7.31,.52,9.74,.52s2.44,2.07,4.88,2.07,2.44-2.07,4.88-2.07"/><path class="b" d="M.5,4.73c2.43,0,2.43,2.07,4.87,2.07s2.44-2.07,4.87-2.07,2.44,2.07,4.88,2.07,2.44-2.07,4.88-2.07"/><path class="b" d="M.5,8.94c2.43,0,2.43,2.07,4.87,2.07s2.44-2.07,4.87-2.07,2.44,2.07,4.88,2.07,2.44-2.07,4.88-2.07"/></svg>